<svg width="90" height="99" viewBox="0 0 90 99" fill="none" xmlns="http://www.w3.org/2000/svg">
<path d="M9 18C9 17.991 8.9865 17.9145 9.1575 17.6355C9.351 17.3205 9.7425 16.8525 10.467 16.281C11.952 15.111 14.382 13.8555 17.784 12.726C24.543 10.467 34.164 9 45 9C55.836 9 65.457 10.4715 72.216 12.7215C75.618 13.8555 78.048 15.1065 79.533 16.2765C80.262 16.8525 80.649 17.3205 80.838 17.6355C81.018 17.919 81 17.9955 81 18C81 18.0135 81.0135 18.09 80.8425 18.3645C80.649 18.6795 80.2575 19.1475 79.533 19.719C78.048 20.889 75.618 22.1445 72.216 23.274C65.457 25.533 55.836 27 45 27C34.164 27 24.543 25.5285 17.784 23.2785C14.382 22.1445 11.952 20.8935 10.467 19.7235C9.95788 19.348 9.51655 18.8884 9.162 18.3645C8.9865 18.0945 9 18.0135 9 18ZM81 29.3715V49.5C81 49.5045 81 49.527 80.9865 49.5675C80.9512 49.6722 80.9028 49.7719 80.8425 49.8645C80.649 50.1795 80.2575 50.6475 79.533 51.219C78.048 52.389 75.618 53.6445 72.216 54.774C65.457 57.0285 55.836 58.5 45 58.5C34.164 58.5 24.543 57.0285 17.784 54.7785C14.382 53.6445 11.952 52.3935 10.467 51.2235C9.95782 50.8481 9.51648 50.3885 9.162 49.8645C9.10026 49.7721 9.05037 49.6723 9.0135 49.5675C9.00599 49.5457 9.00145 49.523 9 49.5V29.3715C10.9166 30.3324 12.9021 31.1492 14.94 31.815C22.8375 34.4475 33.4665 36 45 36C56.5335 36 67.1625 34.4475 75.06 31.815C77.0983 31.15 79.0838 30.3332 81 29.3715ZM81 60.8715V81L80.9865 81.0675C80.9512 81.1722 80.9028 81.2719 80.8425 81.3645C80.649 81.6795 80.2575 82.1475 79.533 82.719C78.048 83.889 75.618 85.1445 72.216 86.274C65.457 88.5285 55.836 90 45 90C34.164 90 24.543 88.5285 17.784 86.2785C14.382 85.1445 11.952 83.8935 10.467 82.7235C9.95782 82.3481 9.51648 81.8885 9.162 81.3645C9.10026 81.2721 9.05037 81.1723 9.0135 81.0675L9 81V60.8715C10.9161 61.8333 12.9017 62.6501 14.94 63.315C22.8375 65.9475 33.4665 67.5 45 67.5C56.5335 67.5 67.1625 65.9475 75.06 63.315C77.0983 62.6501 79.0838 61.8333 81 60.8715ZM0 81C0 84.834 2.3355 87.768 4.896 89.7885C7.5105 91.8495 11.016 93.5055 14.94 94.815C22.8375 97.4475 33.4665 99 45 99C56.5335 99 67.1625 97.4475 75.06 94.815C78.9885 93.51 82.4895 91.845 85.104 89.7885C87.669 87.768 90 84.834 90 81V18C90 14.166 87.6645 11.232 85.104 9.2115C82.4895 7.1505 78.984 5.4945 75.06 4.185C67.1625 1.5525 56.5335 0 45 0C33.4665 0 22.8375 1.5525 14.94 4.185C11.0115 5.49 7.5105 7.155 4.896 9.2115C2.331 11.232 0 14.166 0 18V81Z" fill="white"/>
</svg>
