<svg width="86" height="83" viewBox="0 0 86 83" fill="none" xmlns="http://www.w3.org/2000/svg">
<path d="M51.8889 37.0181C51.8889 37.0181 78.7956 32.5209 78.5556 17.7444C78.3867 7.79054 67.5111 4.08141 65.1511 11.3198C65.1511 11.3198 62.92 2.75366 56.2178 2.75366C49.5156 2.75366 42.9556 15.6028 51.8889 37.0181Z" stroke="black" stroke-width="5" stroke-linecap="round" stroke-linejoin="round"/>
<path d="M51.8 37.0181C51.8 37.0181 78.8 32.5209 78.5556 17.7444C78.3867 7.79054 67.4756 4.08141 65.1111 11.3198C65.1111 11.3198 62.8667 2.75366 56.1467 2.75366C49.4222 2.75366 42.8133 15.6028 51.8044 37.0181H51.8ZM47.4444 49.7817L47.72 51.1051L48.08 52.6042L48.4133 53.8463L48.8222 55.2511L49.3111 56.7845L49.5822 57.5897L50.2 59.2686C53.0444 66.6783 58.3822 75.7027 67.4444 75.5657C77.7733 75.4029 81.6222 64.888 74.1111 62.6094L74.7689 62.4167L75.5022 62.1683C75.6481 62.1144 75.7933 62.0587 75.9378 62.0012L76.9244 61.5815C79.5289 60.3822 83 58.018 83 53.9705C83 47.4902 69.6667 41.1213 47.4444 49.7859V49.7817ZM34.2 45.5843L32.8267 45.8498L31.2711 46.1967L29.9822 46.518L28.5244 46.912L26.9333 47.3831L26.0978 47.6444L24.3556 48.2398C16.6667 50.9809 7.30222 56.1206 7.44444 64.858C7.61333 74.8119 18.5244 78.521 20.8889 71.2826L21.0889 71.9165L21.3467 72.6232L21.52 73.043L21.9556 73.9938C23.2 76.5037 25.6533 79.8487 29.8533 79.8487C36.5778 79.8487 43.1867 66.9996 34.1956 45.5843H34.2ZM38.5556 32.8207L38.28 31.4973L37.92 29.9982L37.5867 28.7561L37.1778 27.3513L36.6889 25.8179L36.12 24.1818L35.4622 22.4729C32.5378 15.2473 27.2667 6.90823 18.5556 7.03672C8.22667 7.19948 4.37778 17.7144 11.8889 19.993L11.2311 20.1857L10.5022 20.4341C10.3533 20.488 10.2052 20.5436 10.0578 20.6012L9.08 21.0209C6.46667 22.2202 3 24.5844 3 28.6319C3 35.1122 16.3333 41.4811 38.5556 32.8165V32.8207Z" stroke="black" stroke-width="5" stroke-linecap="round" stroke-linejoin="round"/>
</svg>
