<svg width="70" height="116" viewBox="0 0 70 116" fill="none" xmlns="http://www.w3.org/2000/svg">
<path d="M69.2655 28.1963C68.8001 27.2832 68.0576 26.5407 67.1445 26.0753L24.1766 0.819487C22.5978 -0.265029 20.1312 -0.265029 18.4037 0.7715L2.12157 10.2922C1.88224 10.4782 1.65165 10.6751 1.43055 10.8824C0.560369 11.8248 0.0682934 13.055 0.0485118 14.3375L0.096498 45.8605L0.000523249 46.8922L0.298046 47.4825C0.502757 47.8991 0.829044 48.2438 1.2338 48.471C1.62701 48.732 2.0866 48.8751 2.55845 48.8836C3.0303 48.8921 3.49475 48.7656 3.8971 48.519L19.9297 39.3486C20.2675 39.1332 20.5541 38.8466 20.7695 38.5088L21.163 37.717V22.2795L31.9649 28.6426L48.9333 38.6096C49.2801 38.8182 49.5548 39.128 49.7203 39.4973C49.9152 39.8255 50.018 40.2002 50.0178 40.5819V74.4226C50.0119 74.8567 49.8928 75.2818 49.6723 75.6559C49.4755 76.0014 49.2788 76.2461 48.9333 76.3949L28.6586 88.3341L21.1102 92.773V77.2826L30.4821 71.6585L35.516 68.6497L36.4038 67.8099L36.5045 67.5652C36.6964 67.1993 36.7984 66.793 36.8021 66.3799V47.9815C36.798 47.4868 36.6441 47.005 36.3606 46.5995L36.0631 46.0092L35.372 45.6637C34.9258 45.467 34.5323 45.467 34.1868 45.467L33.347 45.515L2.81259 64.0621C1.90603 64.5826 1.16941 65.3542 0.691542 66.2839C0.224684 67.1831 -0.0126943 68.1837 0.000523249 69.1968V100.672C0.000523249 101.905 0.494794 103.138 1.57931 104.271C1.97281 104.568 2.31832 104.813 2.71181 105.058L18.7444 114.382C19.637 114.924 20.5727 115.169 21.6093 115.169C22.6458 115.169 23.6343 114.924 24.4693 114.382L67.0917 89.3707C68.0275 88.8764 68.8193 88.0894 69.2128 87.2976C69.755 86.4098 69.9998 85.3733 69.9998 84.3368V31.1091C70.009 30.0913 69.7562 29.0882 69.2655 28.1963ZM17.6647 36.5845L3.55639 44.7232V14.3375C3.55639 13.992 3.70515 13.5985 3.99788 13.301L5.0344 12.7108L17.6647 20.2112V36.5845ZM3.5036 69.192C3.5036 68.7457 3.60438 68.3042 3.80113 67.8579C3.98761 67.498 4.28097 67.2046 4.64091 67.0181L33.3038 49.6035V65.8808L28.7162 68.6449L17.6167 75.3056L3.5084 83.8377L3.5036 69.192ZM3.5036 100.667V87.8879L17.6119 79.4037V94.846L4.98162 102.294L4.48735 101.996C4.24261 101.847 4.04106 101.751 3.99308 101.699C3.70035 101.358 3.5036 101.012 3.5036 100.667ZM66.5015 84.3368C66.496 84.771 66.3769 85.1962 66.156 85.5701C65.9833 85.8989 65.7041 86.1594 65.3642 86.3091L22.6938 111.368C22.3732 111.584 21.9956 111.699 21.6093 111.699C21.2229 111.699 20.8453 111.584 20.5247 111.368L8.4895 104.314L30.4437 91.3909V91.3429L50.6704 79.4517C51.5685 78.9818 52.2943 78.2392 52.7435 77.3306C53.2938 76.4606 53.585 75.452 53.5833 74.4226V40.5819C53.5833 39.5453 53.2857 38.5616 52.7915 37.7218C52.2995 36.8444 51.5843 36.1127 50.7184 35.6008L33.7501 25.6338L17.6647 16.1611L8.43671 10.6857L20.1792 3.78031C20.508 3.58707 20.8824 3.48519 21.2637 3.48519C21.6451 3.48519 22.0195 3.58707 22.3483 3.78031L65.4649 29.1848C65.7903 29.3369 66.0519 29.5985 66.204 29.9239C66.4004 30.288 66.5027 30.6954 66.5015 31.1091V84.3368Z" fill="white"/>
</svg>
