<svg width="90" height="90" viewBox="0 0 90 90" fill="none" xmlns="http://www.w3.org/2000/svg">
<path d="M55 41.25C55 36.42 58.92 32.5 63.75 32.5H71.25C72.2446 32.5 73.1984 32.8951 73.9017 33.5984C74.6049 34.3016 75 35.2554 75 36.25C75 37.2446 74.6049 38.1984 73.9017 38.9016C73.1984 39.6049 72.2446 40 71.25 40H63.75C63.4185 40 63.1005 40.1317 62.8661 40.3661C62.6317 40.6005 62.5 40.9185 62.5 41.25V48.75C62.5 49.44 63.06 50 63.75 50H66.25C71.08 50 75 53.92 75 58.75V66.25C75 68.5706 74.0781 70.7962 72.4372 72.4372C70.7962 74.0781 68.5706 75 66.25 75H58.75C57.7554 75 56.8016 74.6049 56.0984 73.9017C55.3951 73.1984 55 72.2446 55 71.25C55 70.2554 55.3951 69.3016 56.0984 68.5983C56.8016 67.8951 57.7554 67.5 58.75 67.5H66.25C66.5815 67.5 66.8995 67.3683 67.1339 67.1339C67.3683 66.8995 67.5 66.5815 67.5 66.25V58.75C67.5 58.4185 67.3683 58.1005 67.1339 57.8661C66.8995 57.6317 66.5815 57.5 66.25 57.5H63.75C61.4294 57.5 59.2038 56.5781 57.5628 54.9372C55.9219 53.2962 55 51.0706 55 48.75V41.25ZM48.75 36.25C48.75 35.2554 48.3549 34.3016 47.6516 33.5984C46.9484 32.8951 45.9946 32.5 45 32.5C44.0054 32.5 43.0516 32.8951 42.3484 33.5984C41.6451 34.3016 41.25 35.2554 41.25 36.25V66.25C41.25 66.5815 41.1183 66.8995 40.8839 67.1339C40.6495 67.3683 40.3315 67.5 40 67.5H33.75C32.7554 67.5 31.8016 67.8951 31.0984 68.5983C30.3951 69.3016 30 70.2554 30 71.25C30 72.2446 30.3951 73.1984 31.0984 73.9017C31.8016 74.6049 32.7554 75 33.75 75H40C42.3206 75 44.5462 74.0781 46.1872 72.4372C47.8281 70.7962 48.75 68.5706 48.75 66.25V36.25ZM0 16.25V73.75C0 78.0598 1.71205 82.193 4.75951 85.2405C7.80698 88.288 11.9402 90 16.25 90H73.75C78.0598 90 82.193 88.288 85.2405 85.2405C88.288 82.193 90 78.0598 90 73.75V16.25C90 11.9402 88.288 7.80698 85.2405 4.75951C82.193 1.71205 78.0598 0 73.75 0H16.25C11.9402 0 7.80698 1.71205 4.75951 4.75951C1.71205 7.80698 0 11.9402 0 16.25ZM16.25 7.5H73.75C78.58 7.5 82.5 11.42 82.5 16.25V73.75C82.5 76.0706 81.5781 78.2962 79.9372 79.9372C78.2962 81.5781 76.0706 82.5 73.75 82.5H16.25C13.9294 82.5 11.7038 81.5781 10.0628 79.9372C8.42187 78.2962 7.5 76.0706 7.5 73.75V16.25C7.5 11.42 11.42 7.5 16.25 7.5Z" fill="white"/>
</svg>
