<svg width="40" height="41" viewBox="0 0 40 41" fill="none" xmlns="http://www.w3.org/2000/svg">
<path d="M38.3157 0.379505C36.884 0.132899 35.4342 0.00596148 33.9814 8.68896e-06C29.0248 -0.00405489 24.1714 1.41727 20 4.09458C15.8178 1.45243 10.9653 0.0659828 6.01855 0.0998761C4.56577 0.105829 3.11601 0.232766 1.6843 0.479372C1.21534 0.560222 0.790649 0.805856 0.486717 1.17204C0.182785 1.53822 0.0195831 2.00089 0.0265013 2.47672V26.4449C0.0222236 26.7384 0.0826792 27.0292 0.203566 27.2967C0.324454 27.5641 0.502801 27.8017 0.72592 27.9924C0.949038 28.1831 1.21144 28.3222 1.49447 28.4C1.77749 28.4778 2.07417 28.4922 2.3634 28.4423C5.22564 27.9467 8.15812 28.0289 10.9881 28.6841C13.8181 29.3393 16.4883 30.5542 18.8415 32.2572L19.0812 32.397H19.3009C19.5224 32.4893 19.76 32.5368 20 32.5368C20.24 32.5368 20.4776 32.4893 20.6991 32.397H20.9188L21.1585 32.2572C23.4953 30.5161 26.1579 29.2619 28.9884 28.5688C31.8189 27.8758 34.7597 27.758 37.6366 28.2226C37.9258 28.2725 38.2225 28.2581 38.5055 28.1803C38.7886 28.1025 39.051 27.9633 39.2741 27.7726C39.4972 27.5819 39.6755 27.3444 39.7964 27.077C39.9173 26.8095 39.9778 26.5187 39.9735 26.2252V2.25701C39.9527 1.80192 39.777 1.36762 39.4755 1.02612C39.1739 0.68463 38.7647 0.456476 38.3157 0.379505ZM18.0027 26.9243C14.3073 24.9802 10.194 23.9656 6.01855 23.9682H4.0212V3.99471C4.68643 3.95637 5.35332 3.95637 6.01855 3.99471C10.2797 3.99 14.4478 5.24044 18.0027 7.58994V26.9243ZM35.9788 24.0481H33.9814C29.806 24.0455 25.6927 25.0601 21.9974 27.0042V7.58994C25.5522 5.24044 29.7203 3.99 33.9814 3.99471C34.6467 3.95637 35.3136 3.95637 35.9788 3.99471V24.0481ZM38.3157 32.3371C36.884 32.0905 35.4342 31.9636 33.9814 31.9576C29.0248 31.9535 24.1714 33.3749 20 36.0522C15.8286 33.3749 10.9752 31.9535 6.01855 31.9576C4.56577 31.9636 3.11601 32.0905 1.6843 32.3371C1.4243 32.3784 1.17502 32.4706 0.9508 32.6085C0.726577 32.7465 0.531833 32.9274 0.377768 33.1409C0.223704 33.3543 0.113357 33.5961 0.0530736 33.8524C-0.00720977 34.1086 -0.0162402 34.3743 0.0265013 34.6341C0.128004 35.1527 0.430945 35.61 0.868964 35.9058C1.30698 36.2016 1.84437 36.3116 2.3634 36.212C5.22564 35.7164 8.15812 35.7986 10.9881 36.4538C13.8181 37.109 16.4883 38.3239 18.8415 40.0269C19.1798 40.2677 19.5847 40.3972 20 40.3972C20.4153 40.3972 20.8202 40.2677 21.1585 40.0269C23.5117 38.3239 26.1819 37.109 29.0119 36.4538C31.8419 35.7986 34.7744 35.7164 37.6366 36.212C38.1556 36.3116 38.693 36.2016 39.131 35.9058C39.5691 35.61 39.872 35.1527 39.9735 34.6341C40.0162 34.3743 40.0072 34.1086 39.9469 33.8524C39.8866 33.5961 39.7763 33.3543 39.6222 33.1409C39.4682 32.9274 39.2734 32.7465 39.0492 32.6085C38.825 32.4706 38.5757 32.3784 38.3157 32.3371Z" fill="white"/>
</svg>
