<svg width="86" height="83" viewBox="0 0 86 83" fill="none" xmlns="http://www.w3.org/2000/svg">
<path d="M33 26.628C33 29.1838 34.0536 31.635 35.9289 33.4423C37.8043 35.2495 40.3478 36.2649 43 36.2649C45.6522 36.2649 48.1957 35.2495 50.0711 33.4423C51.9464 31.635 53 29.1838 53 26.628C53 24.0721 51.9464 21.6209 50.0711 19.8137C48.1957 18.0064 45.6522 16.9911 43 16.9911C40.3478 16.9911 37.8043 18.0064 35.9289 19.8137C34.0536 21.6209 33 24.0721 33 26.628Z" stroke="black" stroke-width="5" stroke-linecap="round" stroke-linejoin="round"/>
<path d="M83 41.0834C83 79.631 83 79.631 43 79.631C3 79.631 3 79.631 3 41.0834C3 2.53589 3 2.53589 43 2.53589C83 2.53589 83 2.53589 83 41.0834Z" stroke="black" stroke-width="5" stroke-linecap="round" stroke-linejoin="round"/>
<path d="M30.5 45.9018C37.165 49.1157 48.835 49.1157 55.5 45.9018M30.5 65.1756L43 50.7202M43 50.7202L55.5 65.1756M43 50.7202V48.311" stroke="black" stroke-width="5" stroke-linecap="round" stroke-linejoin="round"/>
</svg>
