<svg width="52" height="70" viewBox="0 0 52 70" fill="none" xmlns="http://www.w3.org/2000/svg">
<path d="M52.0075 10.4465L52.0075 59.5536C52.0103 61.4923 51.464 63.3921 50.4319 65.0332C49.3997 66.6743 47.9239 67.9896 46.1753 68.8267C44.1005 69.8067 41.7922 70.1842 39.5134 69.9161C37.2345 69.648 35.0768 68.7451 33.2861 67.3104L3.54194 42.7568C2.43015 41.7933 1.53848 40.6019 0.927377 39.2636C0.31627 37.9253 0 36.4712 0 35C0 33.5288 0.31627 32.0747 0.927377 30.7364C1.53848 29.3981 2.43015 28.2068 3.54194 27.2432L33.2861 2.68962C35.0768 1.25487 37.2345 0.35199 39.5134 0.0838928C41.7922 -0.184204 44.1005 0.19326 46.1753 1.17326C47.9239 2.01042 49.3997 3.32568 50.4319 4.96679C51.464 6.60789 52.0103 8.50776 52.0075 10.4465ZM40.3431 58.3288V12.2544L12.2319 35L40.3431 58.3288Z" fill="white"/>
</svg>
