<svg width="35" height="34" viewBox="0 0 35 34" fill="none" xmlns="http://www.w3.org/2000/svg">
<path d="M34.7699 30.7933C32.5482 26.8941 29.079 23.8558 24.9208 22.1677C26.9886 20.6168 28.5161 18.4546 29.2868 15.9874C30.0575 13.5202 30.0324 10.8731 29.215 8.42092C28.3976 5.96878 26.8294 3.83597 24.7325 2.32463C22.6356 0.813276 20.1164 0 17.5316 0C14.9468 0 12.4275 0.813276 10.3306 2.32463C8.23376 3.83597 6.66556 5.96878 5.84818 8.42092C5.0308 10.8731 5.00568 13.5202 5.77638 15.9874C6.54708 18.4546 8.07452 20.6168 10.1424 22.1677C5.98416 23.8558 2.51498 26.8941 0.293284 30.7933C0.155619 31.0147 0.0638661 31.2615 0.0234797 31.519C-0.0169067 31.7765 -0.00510229 32.0395 0.0581914 32.2924C0.121485 32.5453 0.234976 32.7828 0.391916 32.991C0.548857 33.1991 0.746044 33.3736 0.971755 33.504C1.19746 33.6344 1.44709 33.7181 1.70579 33.7501C1.96449 33.7821 2.22699 33.7617 2.47767 33.6903C2.72836 33.6188 2.96212 33.4977 3.16505 33.334C3.36798 33.1704 3.53594 32.9677 3.65895 32.7379C6.5952 27.6626 11.7806 24.6356 17.5316 24.6356C23.2825 24.6356 28.468 27.6642 31.4042 32.7379C31.6708 33.1665 32.0936 33.4747 32.5833 33.5973C33.073 33.7198 33.5912 33.6472 34.0282 33.3946C34.4653 33.1421 34.7871 32.7295 34.9255 32.2441C35.0639 31.7586 35.0081 31.2384 34.7699 30.7933ZM9.10526 12.3202C9.10526 10.6537 9.59946 9.02454 10.5254 7.63884C11.4513 6.25314 12.7673 5.17311 14.307 4.53535C15.8467 3.89758 17.5409 3.73071 19.1755 4.05584C20.81 4.38097 22.3114 5.1835 23.4899 6.36194C24.6683 7.54038 25.4709 9.04181 25.796 10.6764C26.1211 12.3109 25.9542 14.0051 25.3165 15.5449C24.6787 17.0846 23.5987 18.4006 22.213 19.3265C20.8273 20.2524 19.1981 20.7466 17.5316 20.7466C15.2976 20.744 13.1558 19.8554 11.5761 18.2757C9.99643 16.696 9.10784 14.5543 9.10526 12.3202Z" fill="black"/>
</svg>
