<svg width="110" height="110" viewBox="0 0 110 110" fill="none" xmlns="http://www.w3.org/2000/svg">
<path d="M58.6667 20.5H52.8333V14.6667V13.1667H51.3333H44H42.5V14.6667V20.5H30.8333V11C30.8333 8.48044 31.8342 6.06408 33.6158 4.28249C35.3974 2.50089 37.8138 1.5 40.3333 1.5H69.6667C72.1862 1.5 74.6026 2.50089 76.3842 4.28248C78.1658 6.06408 79.1667 8.48044 79.1667 11V47.6667C79.1667 48.2413 78.9384 48.7924 78.5321 49.1987C78.1257 49.6051 77.5746 49.8333 77 49.8333H33C29.6848 49.8333 26.5054 51.1503 24.1612 53.4945C21.817 55.8387 20.5 59.0181 20.5 62.3333V86.5H11C8.48044 86.5 6.06408 85.4991 4.28249 83.7175C2.50089 81.9359 1.5 79.5196 1.5 77V40.3333C1.5 37.8138 2.50089 35.3974 4.28249 33.6158C6.06408 31.8342 8.48044 30.8333 11 30.8333H58.6667H60.1667V29.3333V22V20.5H58.6667Z" stroke="white" stroke-width="3"/>
<path d="M66.0002 96.8333H67.5002V95.3333V89.5H79.1668V99C79.1668 101.52 78.1659 103.936 76.3844 105.718C74.6028 107.499 72.1864 108.5 69.6668 108.5H40.3335C37.8139 108.5 35.3976 107.499 33.616 105.718C31.8344 103.936 30.8335 101.52 30.8335 99V62.3333C30.8335 61.7587 31.0618 61.2076 31.4681 60.8013C31.8744 60.3949 32.4255 60.1667 33.0002 60.1667H77.0002C80.3154 60.1667 83.4948 58.8497 85.839 56.5055C88.1832 54.1613 89.5002 50.9819 89.5002 47.6667V23.5H99.0002C101.52 23.5 103.936 24.5009 105.718 26.2825C107.499 28.0641 108.5 30.4804 108.5 33V69.6667C108.5 72.1862 107.499 74.6026 105.718 76.3842C103.936 78.1658 101.52 79.1667 99.0002 79.1667H51.3335H49.8335V80.6667V88V89.5H51.3335H57.1668V95.3333V96.8333H58.6668H66.0002Z" stroke="white" stroke-width="3"/>
</svg>
