<svg width="160" height="194" viewBox="0 0 160 194" fill="none" xmlns="http://www.w3.org/2000/svg">
<path d="M11.5232 113.099L68.0727 56.5576C71.8359 52.8485 74.8234 48.4276 76.8613 43.5526C78.8992 38.6776 79.9469 33.4459 79.9431 28.162C79.9439 17.6282 75.8085 7.51515 68.4271 0L11.8695 56.5657C8.1084 60.2743 5.12268 64.694 3.08614 69.5676C1.04961 74.4412 0.00294715 79.6712 0.00709678 84.9532C0.00709678 96.0102 4.43636 105.892 11.5232 113.107V113.099ZM148.484 80.0568L91.9263 136.606C88.1656 140.315 85.1801 144.735 83.1436 149.609C81.1071 154.482 80.0602 159.712 80.0639 164.994C80.0639 175.946 84.4932 185.94 91.58 193.156L148.13 136.606C151.894 132.898 154.882 128.477 156.92 123.602C158.958 118.727 160.005 113.495 160 108.211C160 97.1538 155.571 87.2725 148.484 80.0568ZM148.13 56.6704C151.892 52.9627 154.88 48.5433 156.918 43.6696C158.956 38.7959 160.004 33.5654 160 28.2828C160 17.3305 155.571 7.34452 148.484 0.120798L11.8695 136.622C4.33308 144.101 0.0656472 154.261 0.000751072 164.878C-0.064145 175.495 4.07878 185.706 11.5232 193.277L148.13 56.6704Z" fill="white"/>
</svg>
