<svg width="256" height="261" viewBox="0 0 256 261" fill="none" xmlns="http://www.w3.org/2000/svg">
<path d="M41.7671 61.0907C95.3135 -65.2986 227.802 47.7361 173.755 89.6836C151.465 106.98 134.563 90.4046 121.255 69.3C112.552 55.5035 100.744 43.1954 85.1681 41.6954C66.9996 39.9512 54.8485 50.5907 41.7671 61.0907Z" stroke="black" stroke-width="5" stroke-linecap="round" stroke-linejoin="round"/>
<path d="M171.505 21.451C308.249 33.3173 241.691 194.253 185.092 155.811C161.755 139.962 172.301 118.765 188.255 99.5846C198.691 87.0439 206.743 72.0091 203.354 56.7358C199.4 38.9161 185.54 30.6429 171.505 21.451Z" stroke="black" stroke-width="5" stroke-linecap="round" stroke-linejoin="round"/>
<path d="M249.289 132.584C280.26 266.305 106.638 252.735 125.702 187.032C133.563 159.939 156.981 163.416 180.161 172.666C195.307 178.712 212.092 181.724 225.568 173.782C241.301 164.515 244.882 148.77 249.289 132.584Z" stroke="black" stroke-width="5" stroke-linecap="round" stroke-linejoin="round"/>
<path d="M167.628 240.909C50.0355 311.688 9.27983 142.363 77.6634 140.2C105.861 139.305 109.791 162.648 108.152 187.549C107.082 203.828 109.402 220.723 121.117 231.084C134.797 243.177 150.878 241.723 167.628 240.909Z" stroke="black" stroke-width="5" stroke-linecap="round" stroke-linejoin="round"/>
<path d="M39.377 196.717C-64.2798 106.741 84.1617 15.6714 107.354 80.0317C116.917 106.572 95.9292 117.526 71.7432 123.665C55.9293 127.677 40.5805 135.101 34.3421 149.45C27.0689 166.194 33.4293 181.037 39.377 196.717Z" stroke="black" stroke-width="5" stroke-linecap="round" stroke-linejoin="round"/>
</svg>
