<svg width="35" height="35" viewBox="0 0 35 35" fill="none" xmlns="http://www.w3.org/2000/svg">
<path d="M25.0143 22.0126H23.4334L22.8731 21.4723C24.902 19.119 26.0171 16.1146 26.0149 13.0074C26.0149 10.4348 25.252 7.91996 23.8227 5.7809C22.3934 3.64183 20.362 1.97464 17.9852 0.990138C15.6084 0.00563592 12.993 -0.251955 10.4698 0.24994C7.94662 0.751835 5.62892 1.99067 3.80979 3.80979C1.99067 5.62892 0.751835 7.94662 0.24994 10.4698C-0.251955 12.993 0.00563592 15.6084 0.990138 17.9852C1.97464 20.362 3.64183 22.3934 5.7809 23.8227C7.91996 25.252 10.4348 26.0149 13.0074 26.0149C16.2293 26.0149 19.191 24.8342 21.4723 22.8731L22.0126 23.4334V25.0143L32.0183 35L35 32.0183L25.0143 22.0126ZM13.0074 22.0126C8.02459 22.0126 4.00229 17.9903 4.00229 13.0074C4.00229 8.02459 8.02459 4.00229 13.0074 4.00229C17.9903 4.00229 22.0126 8.02459 22.0126 13.0074C22.0126 17.9903 17.9903 22.0126 13.0074 22.0126Z" fill="white"/>
</svg>
