<svg width="91" height="88" viewBox="0 0 91 88" fill="none" xmlns="http://www.w3.org/2000/svg">
<path d="M3 61.7617C21.8889 52.1232 21.8889 43.0217 7.72222 29.3695M88 61.7617C69.1111 52.1232 69.1111 43.0217 83.2778 29.3695M68.5539 24.8142C68.5539 18.9219 66.125 13.271 61.8016 9.10456C57.4781 4.9381 51.6143 2.59741 45.5 2.59741C39.3857 2.59741 33.5219 4.9381 29.1984 9.10456C24.875 13.271 22.4461 18.9219 22.4461 24.8142C22.4461 44.2595 21.4403 53.98 3 61.7572C12.4444 65.771 12.4444 65.7709 17.1667 75.4094C31.3333 75.4094 36.0556 84.511 45.5 84.511C54.9444 84.511 59.6667 75.4094 73.8333 75.4094C78.5556 65.7709 78.5556 65.771 88 61.7572C69.555 53.98 68.5539 44.2595 68.5539 24.8142Z" stroke="black" stroke-width="5" stroke-linecap="round" stroke-linejoin="round"/>
</svg>
