<svg width="90" height="90" viewBox="0 0 90 90" fill="none" xmlns="http://www.w3.org/2000/svg">
<path d="M19.2857 6.42857V19.2857H6.42857V6.42857H19.2857ZM0 0V25.7143H25.7143V0H0ZM51.4286 16.0714V28.9286H38.5714V16.0714H51.4286ZM32.1429 9.64286V35.3571H57.8571V9.64286H32.1429ZM19.2857 45V57.8571H6.42857V45H19.2857ZM0 38.5714V64.2857H25.7143V38.5714H0Z" fill="white"/>
<path d="M64.2857 25.7142V44.9999H44.9999V64.2857H25.7142V89.9999H89.9999V25.7142H64.2857ZM51.4285 51.4285H64.2857V64.2857H51.4285V51.4285ZM44.9999 83.5714H32.1428V70.7142H44.9999V83.5714ZM64.2857 83.5714H51.4285V70.7142H64.2857V83.5714ZM83.5714 83.5714H70.7142V70.7142H83.5714V83.5714ZM83.5714 64.2857H70.7142V51.4285H83.5714V64.2857ZM70.7142 44.9999V32.1428H83.5714V44.9999H70.7142Z" fill="white"/>
</svg>
